Shakira Live In Paris (2011) 1080p MKV X264 AC3+DTS
.
[IMG]http://img810.imageshack.us/img810/3516/slfp2011.jpg[/IMG]
.
Shakira flawlessly reminds us why the sun comes out, when she's around, November 10, 2011
By Said Cruz "Firebolt" (San Diego, CA USA) - See all my reviews
This review is from: Shakira: En Vivo Desde Paris [Blu-ray] (Blu-ray)
Once more I was fortunate to see this amazing concert live in San Diego, CA and Tijuana, Mexico. Shakira humbly reaches out to her fans throughout the entire night and is entirely devout to her audience. This performance shatters her stereotype as a "hip shaker". Although the stage set up was simple, Shakira was and continues to be the firework that makes the crowd roar. If you are a Shakira fan no need to convince:X-XML: you to buy because chances are you have 2 copies pre-ordered already, for everyone else this is a must have as a demonstration that true talent still exists. Not only did she deconstruct all her songs, she flawlessly re mastered them into a raw electric eargasm. Not to mention that she actually sings and dances from start to finish, there is no doubt that this petite woman packs the power of the sun not only in her voice but her soul as well. 5 stars does not do this justice!
Bravo Shakira que continue saliendo el sol! Help other customers find the most helpful reviews

This concert was filmed in Paris at Palais De Bercy, July 2011.

Track listing includes:
1. Pienso En Ti (Live Video)
2. Why Wait (Live Video)
3. Te Dejo Madrid (Live Video)
4. Inevitable (Live Video)
5. Nothing Else Matters/Despedida Medley (Live Video)
6. Flamenco (Live Video)
7. Gypsy (L:X-XML: ive Video)
8. La Tortura (Live Video)
9. Ciega, Sordomuda (Live Video)
10. Underneath Your Clothes (Live Video)
11. Gordita (Live Video)
12. Sale El Sol (Live Video)
13. Las De La Intuición (Live Video)
14. She Wolf (Live Video)
15. Ojos Así (Live Video)
16. Antes De Las Seis (Live Video)
17. Je L'aime A Mourir (Live Video)
18. Hips Don't Lie (Live Video)
19. Waka Waka (This Time For Africa) (Live Video)
20. Rabiosa (Audio Bed - Final Credits) 
.
Enjoy
.
Video
ID                               : 1
Format                           : AVC
Format/Info                      : Advanced Video Codec
Format profile                   : High@L5.0
Format settings, CABAC           : Yes
Format settings, ReFrames        : 5 frames
Codec ID                         : V_MPEG4/ISO/AVC
Duration                         : 1h 38mn
Bit rate                         : 13.3 Mbps
Width                            : 1 920 pixels
Height                           : 1 080 pixels
Display aspect ratio             : 16:9
Frame rate                       : 29.970 fps
Color space                      : YUV
Chroma subsampling               : 4:2:0
Bit depth                        : 8 bits
Scan type                        : Progressive
Bits/(Pixel*Frame)               : 0.214
Stream size                      : 9.15 GiB (84%)
Title                            : Shakira Live In Paris (2011) 1080p MKV X264 AC3+DTS
Writing library                  : x264 core 116 r2074 2641b9e
Encoding settings                : cabac=1 / ref=5 / deblock=1:-1:-1 / analyse=0x3:0x113 / me=umh / subme=8 / psy=1 / psy_rd=1.00:0.15 / mixed_ref=1 / me_range=16 / chroma_me=1 / trellis=1 / 8x8dct=1 / cqm=0 / deadzone=21,11 / fast_pskip=1 / chroma_qp_offset=-3 / threads=6 / sliced_threads=0 / nr=0 / decimate=1 / interlaced=0 / bluray_compat=0 / constrained_intra=0 / bframes=3 / b_pyramid=2 / b_adapt=2 / b_bias=0 / direct=3 / weightb=1 / open_gop=0 / weightp=2 / keyint=250 / keyint_min=25 / scenecut=40 / intra_refresh=0 / rc_lookahead=50 / rc=crf / mbtree=1 / crf=19.0 / qcomp=0.60 / qpmin=0 / qpmax=69 / qpstep=4 / ip_ratio=1.40 / aq=1:1.00
Language                         : English

Audio #1
ID                               : 2
Format                           : DTS
Format/Info                      : Digital Theater Systems
Codec ID                         : A_DTS
Duration                         : 1h 38mn
Bit rate mode                    : Constant
Bit rate                         : 1 510 Kbps
Channel(s)                       : 6 channels
Channel positions                : Front: L C R, Side: L R, LFE
Sampling rate                    : 48.0 KHz
Bit depth                        : 24 bits
Compression mode                 : Lossy
Stream size                      : 1.04 GiB (10%)
Title                            : DTS
Language                         : English

Audio #2
ID                               : 3
Format                           : AC-3
Format/Info                      : Audio Coding 3
Mode extension                   : CM (complete main)
Codec ID                         : A_AC3
Duration                         : 1h 38mn
Bit rate mode                    : Constant
Bit rate                         : 640 Kbps
Channel(s)                       : 6 channels
Channel positions                : Front: L C R, Side: L R, LFE
Sampling rate                    : 48.0 KHz
Bit depth                        : 16 bits
Compression mode                 : Lossy
Stream size                      : 450 MiB (4%)
Title                            : AC3
Language                         : English

